# xmcd
#
# Track frame offsets:
#	150
#	20583
#	34457
#	53266
#	76798
#	96923
#	115244
#	141274
#	154852
#	167762
#	182033
#	200781
#	219531
#	231136
#	245468
#	262756
#
# Disc length: 3812 seconds
#
# Revision: 1
# Processed by: cddbd v1.5.1PL0 Copyright (c) Steve Scherf et al.
# Submitted via: audiograbber 1.83.01
#
DISCID=d70ee210
DTITLE=Steve Earle - Angry Young Man
DYEAR=1900
DGENRE=
TTITLE0=Copperhead Road
TTITLE1=The Devil's Right Hand
TTITLE2=Johnny Come Lately
TTITLE3=Waiting On You
TTITLE4=Angry Young Man
TTITLE5=I Ain't Ever Satisfied
TTITLE6=It's All Up To You
TTITLE7=No. 29
TTITLE8=Nowhere Road
TTITLE9=San Antonio Girl
TTITLE10=The Rain Came Down
TTITLE11=Fearless Heart
TTITLE12=Guitar Town
TTITLE13=My Old Friend the Blues
TTITLE14=Someday
TTITLE15=The Other Kind
EXTD=
EXTT0=
EXTT1=
EXTT2=
EXTT3=
EXTT4=
EXTT5=
EXTT6=
EXTT7=
EXTT8=
EXTT9=
EXTT10=
EXTT11=
EXTT12=
EXTT13=
EXTT14=
EXTT15=
PLAYORDER=
